<svg xmlns="http://www.w3.org/2000/svg" width="121.484" height="85.04" viewBox="0 0 121.484 85.04">
  <g id="Group_1" data-name="Group 1" transform="translate(-84.55 -85.039)">
    <path id="Path_1" data-name="Path 1" d="M203.5,98.818c-1.4-5.226-5.514-9.843-10.741-11.24-9.474-2.539-47.463-2.539-47.463-2.539s-37.989,0-47.463,2.539c-5.227,1.4-9.344,6.014-10.741,11.24-2.538,9.474-2.538,28.741-2.538,28.741s0,19.767,2.538,29.241a15.214,15.214,0,0,0,10.741,10.74c9.474,2.539,47.463,2.539,47.463,2.539s37.989,0,47.463-2.539A15.214,15.214,0,0,0,203.5,156.8c2.538-9.474,2.538-29.241,2.538-29.241S206.034,108.292,203.5,98.818Z" fill="#1A1A1A"/>
    <text id="_" data-name="?" transform="translate(134.55 145.039)" fill="#fff" font-size="50" font-family="SegoeUI-Bold, Segoe UI" font-weight="700"><tspan x="0" y="0">?</tspan></text>
  </g>
</svg>
